<?xml version="1.0" encoding="UTF-8"?><svg id="a" xmlns="http://www.w3.org/2000/svg" xmlns:xlink="http://www.w3.org/1999/xlink" viewBox="0 0 30.64 31.68"><defs><style>.f,.g,.h,.i,.j,.k,.l,.m,.n{stroke-miterlimit:2.61;}.f,.h,.o,.i,.j,.k,.l,.m,.n,.p{stroke:#332c2b;}.f,.q{stroke-width:.03px;}.f,.q,.o,.i,.j,.k,.l,.n,.r,.p,.s{fill:#e52129;}.t{fill:#2f318a;}.t,.g,.h,.q,.o,.u,.v,.w,.x,.m,.r,.p,.s{fill-rule:evenodd;}.t,.u,.v,.y,.z,.w,.x,.aa,.s{stroke-width:0px;}.g{stroke:#009a4c;}.g,.x{fill:#009a4c;}.g,.m{stroke-width:.03px;}.h{stroke-width:.02px;}.h,.y,.z{fill:none;}.q,.o,.r,.p{stroke-linecap:round;stroke-linejoin:round;}.q,.r{stroke:#e52129;}.o{stroke-width:.26px;}.ab{clip-path:url(#d);}.i{stroke-width:.03px;}.u{fill:#ffef00;}.v,.m{fill:#332c2b;}.ac{clip-path:url(#b);}.z{clip-rule:evenodd;}.ad{clip-path:url(#e);}.j{stroke-width:.03px;}.k,.r{stroke-width:.03px;}.l{stroke-width:.03px;}.w,.aa{fill:#fdfdfd;}.ae{clip-path:url(#c);}.n{stroke-width:.03px;}.p{stroke-width:.26px;}</style><clipPath id="b"><path class="z" d="M6.91.2h16.82c.22,1.68,1.18,2.48,2.74,2.56v13.75c-.01,10.2-7.97,7.63-11.15,10.89-3.18-3.26-11.14-.69-11.14-10.89V2.76c1.56-.08,2.51-.88,2.73-2.56Z"/></clipPath><clipPath id="c"><rect class="y" x="3.84" y="16.89" width="23.64" height="11.1"/></clipPath><clipPath id="d"><polygon class="z" points="13.97 5.7 13.18 5.7 8.87 5.7 8.87 17.34 13.97 17.34 13.97 5.7"/></clipPath><clipPath id="e"><polygon class="z" points="16.32 5.7 17.11 5.7 21.42 5.7 21.42 17.34 16.32 17.34 16.32 5.7"/></clipPath></defs><path class="h" d="M6.91.2h16.82c.22,1.68,1.18,2.48,2.74,2.56v13.75c-.01,10.2-7.97,7.63-11.15,10.89-3.18-3.26-11.14-.69-11.14-10.89V2.76c1.56-.08,2.51-.88,2.73-2.56Z"/><path class="u" d="M6.91.2h16.82c.22,1.68,1.18,2.48,2.74,2.56v13.75c-.01,10.2-7.97,7.63-11.15,10.89-3.18-3.26-11.14-.69-11.14-10.89V2.76c1.56-.08,2.51-.88,2.73-2.56Z"/><g class="ac"><rect class="aa" x="3.84" y="16.89" width="23.64" height="11.1"/><g class="ae"><path class="t" d="M4.45,18.25c-.17-.04-.28-.21-.24-.38.04-.17.21-.28.39-.24.8.19,1.57.36,2.31.48.74.12,1.47.19,2.16.18h.04c.59-.01,1.17-.16,1.72-.3.74-.19,1.43-.37,2.09-.21h0s0,0,0,0h0s.02,0,.02,0c.3.08.62.17.92.26.66.2,1.29.38,1.6.33.69-.11,1.2-.25,1.62-.37.74-.2,1.27-.35,2.07-.23.38.06.74.14,1.1.23.68.16,1.35.32,2.18.24.61-.06,1.22-.19,1.84-.32h0c.81-.17,1.63-.35,2.52-.39.18,0,.33.13.33.3,0,.17-.13.32-.31.33-.82.03-1.62.2-2.41.37h0s0,0,0,0c-.63.13-1.26.27-1.91.33-.93.09-1.66-.08-2.39-.26-.33-.08-.67-.16-1.04-.21-.67-.1-1.15.03-1.81.21-.45.12-.97.27-1.69.39-.45.07-1.15-.13-1.88-.35-.3-.09-.61-.18-.89-.25,0,0-.01,0-.02,0h0s0,0,0,0c-.5-.12-1.11.04-1.77.21-.58.15-1.2.31-1.86.32h-.04s0,0,0,0h0s0,0,0,0c-.73,0-1.49-.07-2.27-.19-.78-.12-1.57-.3-2.36-.48Z"/><path class="t" d="M4.45,19.79c-.17-.04-.28-.21-.24-.38.04-.17.21-.28.39-.24.8.19,1.57.36,2.31.48.74.12,1.47.19,2.16.18h.04c.59-.01,1.17-.16,1.72-.3.74-.19,1.43-.37,2.09-.21h0s0,0,0,0h0s.02,0,.02,0c.3.07.62.17.92.26.66.2,1.29.38,1.6.33.69-.11,1.2-.25,1.62-.37.74-.2,1.27-.35,2.07-.23.38.06.74.14,1.1.23.68.16,1.35.32,2.18.24.61-.06,1.22-.19,1.84-.32h0c.81-.17,1.63-.35,2.52-.39.18,0,.33.13.33.3,0,.17-.13.32-.31.33-.82.03-1.62.2-2.41.37h0s0,0,0,0c-.63.13-1.26.27-1.91.33-.93.09-1.66-.08-2.39-.25-.33-.08-.67-.16-1.04-.21-.67-.1-1.15.03-1.81.21-.45.12-.97.27-1.69.39-.45.07-1.15-.13-1.88-.35-.3-.09-.61-.18-.89-.25,0,0-.01,0-.02,0h0s0,0,0,0c-.5-.12-1.11.04-1.77.21-.58.15-1.2.31-1.86.32h-.04s0,0,0,0h0c-.73,0-1.49-.07-2.27-.19-.78-.12-1.57-.3-2.36-.48Z"/><path class="t" d="M4.45,21.33c-.17-.04-.28-.21-.24-.38.04-.17.21-.28.39-.24.8.19,1.57.36,2.31.48.74.12,1.47.19,2.16.18h.04c.59-.01,1.17-.16,1.72-.3.74-.19,1.43-.37,2.09-.21h0s0,0,0,0h0s.02,0,.02,0c.3.07.62.17.92.26.66.2,1.29.38,1.6.33.69-.11,1.2-.25,1.62-.37.74-.2,1.27-.35,2.07-.23.38.06.74.14,1.1.23.68.16,1.35.32,2.18.24.61-.06,1.22-.19,1.84-.32h0c.81-.17,1.63-.35,2.52-.39.18,0,.33.13.33.3,0,.17-.13.32-.31.33-.82.03-1.62.2-2.41.37h0s0,0,0,0c-.63.13-1.26.27-1.91.33-.93.09-1.66-.08-2.39-.26-.33-.08-.67-.16-1.04-.21-.67-.1-1.15.03-1.81.21-.45.12-.97.27-1.69.39-.45.07-1.15-.13-1.88-.35-.3-.09-.61-.18-.89-.25,0,0-.01,0-.02,0h0s0,0,0,0c-.5-.12-1.11.04-1.77.21-.58.15-1.2.31-1.86.32h-.04s0,0,0,0h0s0,0,0,0c-.73,0-1.49-.07-2.27-.19-.78-.12-1.57-.3-2.36-.48Z"/><path class="t" d="M4.45,22.77c-.17-.04-.28-.21-.24-.38.04-.17.21-.28.39-.24.8.19,1.57.36,2.31.48.74.12,1.47.19,2.16.18h.04c.59-.01,1.17-.16,1.72-.3.74-.19,1.43-.37,2.09-.21h0s0,0,0,0h0s.02,0,.02,0c.3.08.62.17.92.26.66.2,1.29.38,1.6.33.69-.11,1.2-.25,1.62-.37.74-.2,1.27-.35,2.07-.23.38.06.74.14,1.1.23.68.16,1.35.32,2.18.24.61-.06,1.22-.19,1.84-.32h0c.81-.17,1.63-.35,2.52-.39.18,0,.33.13.33.3,0,.17-.13.32-.31.33-.82.03-1.62.2-2.41.37h0s0,0,0,0c-.63.14-1.26.27-1.91.33-.93.09-1.66-.08-2.39-.26-.33-.08-.67-.16-1.04-.21-.67-.1-1.15.03-1.81.21-.45.12-.97.27-1.69.39-.45.07-1.15-.13-1.88-.35-.3-.09-.61-.18-.89-.25,0,0-.01,0-.02,0h0s0,0,0,0c-.5-.12-1.11.04-1.77.21-.58.15-1.2.31-1.86.32h-.04s0,0,0,0h0s0,0,0,0c-.73,0-1.49-.07-2.27-.19-.78-.12-1.57-.3-2.36-.48Z"/><path class="t" d="M4.45,24.43c-.17-.04-.28-.21-.24-.38.04-.17.21-.28.39-.24.8.19,1.57.36,2.31.48.74.12,1.47.19,2.16.18h.04c.59-.01,1.17-.16,1.72-.3.74-.19,1.43-.37,2.09-.21h0s0,0,0,0h0s.02,0,.02,0c.3.07.62.17.92.26.66.2,1.29.38,1.6.33.69-.11,1.2-.25,1.62-.37.74-.2,1.27-.35,2.07-.23.38.06.74.14,1.1.23.68.16,1.35.32,2.18.24.61-.06,1.22-.19,1.84-.32h0c.81-.17,1.63-.35,2.52-.39.18,0,.33.13.33.3,0,.17-.13.32-.31.33-.82.03-1.62.2-2.41.37h0s0,0,0,0c-.63.13-1.26.27-1.91.33-.93.09-1.66-.08-2.39-.25-.33-.08-.67-.16-1.04-.21-.67-.1-1.15.03-1.81.21-.45.12-.97.27-1.69.39-.45.07-1.15-.13-1.88-.35-.3-.09-.61-.18-.89-.25,0,0-.01,0-.02,0h0s0,0,0,0c-.5-.12-1.11.04-1.77.21-.58.15-1.2.31-1.86.32h-.04s0,0,0,0h0c-.73,0-1.49-.07-2.27-.19-.78-.12-1.57-.3-2.36-.48Z"/><path class="t" d="M4.45,26.09c-.17-.07-.28-.35-.24-.64.04-.28.21-.46.39-.39.8.31,1.57.59,2.31.79.74.2,1.47.32,2.16.31h.04c.59-.02,1.17-.27,1.72-.51.74-.32,1.43-.62,2.09-.35h0s0,0,0,0h0s.02,0,.02,0c.3.12.62.28.92.43.66.32,1.29.64,1.6.55.69-.19,1.2-.42,1.62-.62.74-.34,1.27-.58,2.07-.39.38.09.74.24,1.1.38.68.27,1.35.54,2.18.4.61-.1,1.22-.32,1.84-.54h0c.81-.29,1.63-.58,2.52-.64.18-.01.33.22.33.51,0,.29-.13.54-.31.55-.82.06-1.62.34-2.41.62h0s0,0,0,0c-.63.22-1.26.45-1.91.56-.93.16-1.66-.13-2.39-.42-.33-.13-.67-.27-1.04-.36-.67-.16-1.15.05-1.81.36-.45.21-.97.45-1.69.65-.45.12-1.15-.22-1.88-.58-.3-.15-.61-.3-.89-.42,0,0-.01,0-.02,0h0s0,0,0,0c-.5-.2-1.11.06-1.77.35-.58.25-1.2.52-1.86.54h-.04s0,0,0,0h0s0,0,0,0c-.73.01-1.49-.11-2.27-.32-.78-.21-1.57-.49-2.36-.8Z"/></g><path class="g" d="M4.13,16.96l10.25-4.78.58.5.24-.53.39.36.34-.34s9.93,4,10.68,3.93l-.06,1.17-22.55.03.13-.36Z"/></g><path class="v" d="M6.91,0h16.82c.11,0,.2.08.2.19.11.78.38,1.36.8,1.74.43.39,1.01.59,1.75.63.11,0,.2.1.19.21h0v13.74c0,7.05-3.72,8.13-7.13,9.12-1.57.46-3.08.89-4.07,1.91-.08.08-.2.08-.28,0h0c-.99-1.02-2.5-1.46-4.07-1.92-3.41-.99-7.12-2.07-7.13-9.12V2.76c0-.11.08-.19.18-.2h0c.73-.04,1.32-.24,1.75-.63.43-.39.7-.97.8-1.76.01-.1.1-.17.2-.17h0ZM15.32.4H7.08c-.13.8-.44,1.4-.9,1.82-.46.42-1.07.65-1.81.72v13.56c0,6.75,3.57,7.79,6.85,8.74,1.55.45,3.04.88,4.1,1.88,1.06-.99,2.55-1.42,4.1-1.88,3.27-.95,6.84-1.99,6.84-8.74V2.94c-.74-.07-1.34-.3-1.8-.72-.46-.42-.77-1.02-.9-1.82h-8.24Z"/><path class="m" d="M14.91,3.99s-.05,1.59.23,1.72c0,0,.17-.42.06-.55,0,0,.14-.17.43.83.29,1-.08,1.64-.07,1.98.01.34-.09.75.17.92.64.44-.03,1.42-.61.72-.52-.57.18-1.78-.16-2.01-1.02-1.51-1.11-2.42-.06-3.62Z"/><polygon class="s" points="20.65 8.52 20.43 9.18 19.73 9.18 20.3 9.58 20.08 10.24 20.65 9.83 21.22 10.24 21 9.58 21.57 9.18 20.87 9.18 20.65 8.52"/><polygon class="q" points="9.51 8.58 9.73 9.24 10.43 9.24 9.86 9.64 10.08 10.29 9.51 9.89 8.94 10.29 9.16 9.64 8.59 9.24 9.3 9.24 9.51 8.58"/><polygon class="q" points="9.88 6.15 10.09 6.82 10.81 6.82 10.23 7.23 10.45 7.89 9.88 7.48 9.3 7.89 9.52 7.23 8.94 6.82 9.66 6.82 9.88 6.15"/><polygon class="q" points="10.99 4 11.21 4.69 11.96 4.69 11.36 5.11 11.59 5.8 10.99 5.38 10.39 5.8 10.62 5.11 10.02 4.69 10.76 4.69 10.99 4"/><polygon class="r" points="12.79 2.4 13.04 3.15 13.87 3.15 13.2 3.62 13.45 4.37 12.79 3.9 12.12 4.37 12.38 3.62 11.71 3.15 12.53 3.15 12.79 2.4"/><path class="s" d="M20.65,8.55l-.21.63s0,0,0,0h-.67s.55.39.55.39c0,0,0,0,0,.01h0s-.21.63-.21.63l.54-.39s0,0,.01,0l.54.39-.21-.63s0,0,0-.01l.55-.39h-.67s0,0,0,0h0l-.21-.63h0ZM20.43,9.17l.21-.65s0,0,0,0c0,0,.01,0,.01,0l.21.65h.7s0,0,0,0c0,0,0,0,0,0,0,0,0,.01,0,.01l-.56.4.22.65s0,0,0,0c0,0,0,0-.01,0l-.56-.4-.56.4h0s0,0,0,0c0,0,0,0,0-.01l.22-.65-.56-.4h0s0,0,0,0c0,0,0,0,0,0h.7Z"/><polygon class="q" points="20.29 6.09 20.07 6.76 19.35 6.76 19.93 7.17 19.71 7.84 20.29 7.42 20.87 7.84 20.64 7.17 21.22 6.76 20.51 6.76 20.29 6.09"/><polygon class="r" points="19.18 3.94 18.95 4.63 18.21 4.63 18.81 5.06 18.58 5.75 19.18 5.32 19.78 5.75 19.55 5.06 20.15 4.63 19.4 4.63 19.18 3.94"/><polygon class="q" points="17.38 2.34 17.12 3.09 16.29 3.09 16.96 3.56 16.71 4.31 17.38 3.84 18.04 4.31 17.79 3.56 18.46 3.09 17.63 3.09 17.38 2.34"/><polygon class="q" points="15.05 1.29 14.76 2.17 13.8 2.16 14.58 2.7 14.28 3.58 15.05 3.03 15.83 3.58 15.53 2.7 16.31 2.16 15.35 2.17 15.05 1.29"/><path class="v" d="M8.75,14.67c.04.06.03.14-.03.18-.06.04-.14.03-.18-.03-.02-.02-5.66-7.33,1.82-12.46.06-.04.14-.03.18.03.04.06.03.14-.03.18-7.25,4.98-1.78,12.08-1.76,12.1Z"/><path class="v" d="M12.21,1.66c-.27.27-.55.5-.85.66-.3.16-.61.25-.94.23-.05,0-.09-.04-.09-.09,0-.01,0-.03,0-.04.16-.35.42-.57.74-.71.31-.13.67-.18,1.05-.2.05,0,.09.03.09.08,0,.03,0,.05-.03.07h0ZM11.28,2.16c.21-.11.42-.27.63-.46-.27.03-.52.08-.74.17-.24.1-.44.26-.58.49.24-.01.48-.09.7-.21Z"/><path class="v" d="M11.09,1.24c-.1.16-.19.34-.29.53-.27.55-.57,1.15-1.16,1.31-.05.01-.1-.02-.11-.06h0c-.02-.08-.03-.15-.04-.23-.02-.37.13-.74.38-1.04.24-.3.57-.52.9-.61.08-.02.16-.03.23-.04.05,0,.09.03.09.08,0,.02,0,.04-.01.05h0ZM10.64,1.69c.07-.13.13-.27.2-.39h-.02c-.29.08-.59.29-.81.55-.22.27-.36.59-.34.92,0,.03,0,.07.01.1.45-.17.71-.7.96-1.19Z"/><path class="v" d="M11.49,2.79c-.13,0-.26.01-.4.01-.5.01-1.04.02-1.3.31.05.03.1.05.16.07.29.11.61.11.89.03.28-.08.52-.24.66-.43h0ZM11.06,2.65c.2,0,.39,0,.55-.03.02,0,.04,0,.06,0,.04.02.07.07.05.11-.02.05-.05.11-.08.16-.15.22-.42.4-.73.48-.31.09-.67.09-1-.04-.1-.04-.19-.09-.28-.15-.04-.03-.05-.08-.03-.11.28-.4.9-.42,1.47-.43Z"/><path class="v" d="M9.3,2.08c-.12.23-.17.54-.23.85-.11.61-.23,1.22-.76,1.36-.05.01-.1-.02-.11-.06h0s-.01-.05-.02-.07c-.1-.43-.03-.93.14-1.34.18-.42.47-.76.84-.86,0,0,.02,0,.04,0,.05-.01.1.02.11.07,0,.02,0,.04,0,.06h0ZM8.89,2.9c.05-.25.09-.49.17-.71-.24.13-.44.38-.57.69-.16.37-.22.82-.14,1.2.35-.16.45-.68.54-1.19Z"/><path class="v" d="M10.3,3.66c-.13.02-.26.04-.4.06-.5.06-1.04.13-1.3.45.02.01.05.02.07.03.3.11.65.08.95-.03.29-.11.54-.29.68-.51h0ZM9.87,3.56c.2-.03.39-.05.55-.09.02,0,.04,0,.06,0,.04.02.07.06.05.1-.02.04-.04.09-.06.13-.15.26-.44.48-.78.61-.34.13-.73.16-1.08.03-.06-.02-.12-.05-.18-.08-.04-.02-.06-.07-.03-.11.28-.43.9-.51,1.47-.59Z"/><path class="v" d="M9.43,4.65c-.13.03-.26.06-.4.08-.5.1-1.04.2-1.3.52.32.11.69.06,1.02-.07.29-.12.55-.32.68-.53h0ZM9,4.59c.2-.04.39-.08.55-.12.02,0,.04,0,.06,0,.04.01.07.05.05.09,0,.01,0,.02-.02.04,0,0,0,0,0,0-.13.28-.45.55-.83.71-.38.16-.81.21-1.18.07h0s-.04-.02-.06-.03c-.04-.02-.05-.06-.03-.1.28-.43.9-.55,1.47-.66Z"/><path class="v" d="M7.86,3.39c-.06.23-.03.54,0,.85.05.61.1,1.22-.4,1.36-.04.01-.1-.02-.13-.06h0c-.09-.18-.16-.37-.2-.55,0,0,0,0,0,0-.08-.34-.08-.69-.01-.99.07-.3.23-.54.45-.67.05-.03.11-.05.17-.06.05-.01.1.02.12.07.01.02.01.04,0,.06h0ZM7.67,4.21c-.02-.25-.04-.49-.02-.71-.18.11-.3.31-.36.57-.07.27-.06.6,0,.91h0c.03.15.08.28.14.42.31-.16.27-.68.23-1.19h0ZM7.86,3.39l-.05.04s.04-.02.05-.04Z"/><path class="v" d="M6.76,4.23c-.12.6.05.99.21,1.33.19.43.35.79-.03,1.35-.02.04-.08.04-.13,0,0,0,0,0-.01-.01-.32-.28-.5-.68-.54-1.17-.03-.45.07-.99.32-1.59.02-.04.07-.05.12-.02.04.02.07.07.06.11h0ZM6.79,5.6c-.1-.22-.21-.46-.25-.76-.09.34-.12.65-.1.93.03.39.16.71.38.94.27-.45.13-.76-.03-1.12Z"/><path class="v" d="M8.37,5.94c-.2.11-.39.15-.56.18-.28.05-.52.1-.71.53.22.06.47,0,.72-.17.18-.12.36-.3.54-.54h0ZM7.77,5.98c.27-.05.57-.11.9-.5h0s.06-.03.09,0c.03.02.05.07.03.1-.28.49-.58.84-.88,1.04-.32.21-.63.27-.92.16,0,0,0,0-.01,0-.04-.02-.06-.06-.04-.1.21-.57.49-.62.83-.69Z"/><path class="v" d="M5.91,5.89c-.13.65.19,1.01.46,1.31.29.32.53.59.26,1.03-.02.04-.08.04-.12,0,0,0,0,0-.01-.01-.3-.26-.61-.55-.8-.93-.18-.39-.22-.86.04-1.49.02-.04.07-.05.12-.02.04.02.07.07.06.11h0ZM6.24,7.29c-.19-.21-.41-.45-.5-.79-.03.29.02.54.12.75.14.3.4.55.65.77.14-.29-.05-.5-.26-.74Z"/><path class="v" d="M8.14,6.88c-.2.21-.46.29-.7.36-.34.1-.64.19-.61.79.08-.04.15-.07.22-.11.48-.23.92-.44,1.09-1.04h0ZM7.4,7.09c.33-.1.7-.21.82-.78,0-.04.05-.08.1-.08.06,0,.1.02.1.07,0,1.15-.62,1.44-1.28,1.76-.12.05-.23.11-.34.17-.01,0-.03.01-.04.02-.06.01-.1-.01-.11-.06-.09-.84.31-.96.76-1.09Z"/><path class="v" d="M5.4,7.31c-.05.31.28.67.61,1.03.37.4.74.81.7,1.24,0,.04-.03.06-.07.06-.09,0-.2-.02-.32-.07-.25-.11-.55-.33-.79-.63-.24-.3-.41-.67-.42-1.08,0-.2.03-.42.12-.63.02-.04.07-.05.12-.02.04.02.07.07.06.11h0ZM5.88,8.44c-.23-.25-.46-.51-.58-.76-.01.07-.01.15-.01.22,0,.36.17.69.37.95.21.26.47.46.69.55.06.03.12.04.17.05-.01-.33-.33-.67-.64-1.02Z"/><path class="v" d="M7.92,8c-.16.18-.35.31-.53.43-.34.22-.66.44-.67,1.03.22-.02.5-.19.74-.47.22-.25.39-.59.46-.99h0ZM7.31,8.29c.25-.17.5-.34.65-.65h0s.05-.06.09-.07c.05-.01.09.02.09.07h0c-.01.6-.25,1.1-.55,1.45-.31.36-.69.56-.98.56-.04,0-.07-.02-.07-.07,0-.75.38-1.01.78-1.28Z"/><path class="v" d="M7.8,9.24c-.11.15-.22.27-.33.38-.26.27-.48.5-.49,1.15.19-.03.38-.21.53-.49.14-.27.25-.63.29-1.04h0ZM7.35,9.51c.17-.17.34-.35.48-.66h0s.05-.06.09-.07c.05-.01.09.02.09.07h0s0,0,0,0c-.01.58-.14,1.09-.34,1.46-.21.39-.49.63-.8.62-.04,0-.07-.02-.08-.07,0-.78.26-1.05.56-1.36Z"/><path class="v" d="M5,8.76c.21.47.66.8,1.06,1.1.48.36.89.66.84,1.11,0,.04-.03.06-.07.06-.32,0-.83-.31-1.26-.8-.35-.4-.65-.91-.75-1.46,0-.05.02-.09.08-.08.04,0,.09.04.1.08h0ZM5.98,9.98c-.27-.2-.57-.42-.81-.7.13.31.33.6.54.84.35.41.76.68,1.02.71-.01-.31-.36-.57-.75-.86Z"/><path class="v" d="M5.02,10.25c.22.48.8.8,1.31,1.1.58.33,1.09.62,1.04,1.07,0,.04-.03.06-.07.06-.33,0-1.02-.33-1.59-.84-.42-.38-.77-.86-.87-1.38,0-.05.02-.09.08-.08.04,0,.09.04.1.08h0ZM6.27,11.49c-.37-.21-.76-.43-1.06-.72.15.28.37.53.61.75.49.44,1.06.74,1.37.77-.02-.29-.44-.53-.92-.8Z"/><path class="v" d="M7.97,10.56c-.08.12-.16.23-.24.33-.27.35-.49.64-.39,1.38.18-.03.32-.25.43-.56.11-.31.17-.71.2-1.15h0ZM7.59,10.81c.14-.18.28-.37.4-.63h0s.05-.06.09-.07c.05-.01.09.02.09.07v.02c-.01.57-.09,1.12-.23,1.53-.15.45-.39.73-.71.73h0s-.06-.02-.07-.05c-.13-.86.12-1.19.43-1.58Z"/><path class="v" d="M8.41,11.69c-.07.18-.15.34-.23.49-.2.39-.38.73-.19,1.28h0c.12-.02.22-.13.3-.31.09-.21.14-.5.15-.84,0-.19,0-.4-.02-.62h0ZM8.02,12.14c.13-.25.27-.52.34-.88h0s.04-.07.08-.09c.05-.02.1,0,.11.05.06.38.09.74.08,1.05,0,.37-.06.68-.16.91-.11.26-.27.42-.48.46-.03,0-.06,0-.09,0h0s-.05-.02-.06-.04c-.24-.64-.04-1.02.19-1.46Z"/><path class="w" d="M20.12,2.79c-.4-.19-.23-.79.22-.66.03-.34.21-.42.58-.24-.13.11-.07.3.08.52-.7.08-.69.38-.29.81-.33-.02-.47.04-.45.17-.36-.08-.5-.47-.13-.6Z"/><path class="v" d="M20.1,2.79c-.13-.07-.2-.19-.21-.31,0-.06,0-.11.02-.16.02-.05.05-.1.09-.13.08-.07.19-.11.33-.07.02-.16.07-.27.17-.31.1-.04.24-.02.43.07h.01s-.01.02-.01.02c-.06.05-.08.12-.06.21.02.09.07.19.14.3h0s-.02.01-.02.01c-.35.04-.52.13-.55.27-.03.14.07.32.27.53v.02c-.17-.01-.29,0-.36.03-.07.03-.1.07-.09.13h0s-.01.01-.01.01c-.12-.03-.22-.09-.28-.17-.04-.05-.06-.1-.07-.16,0-.05,0-.11.03-.16.03-.05.09-.1.17-.13h0ZM19.91,2.48c0,.12.08.24.22.3h.02s-.02.02-.02.02c-.09.03-.14.08-.18.13-.03.05-.04.1-.03.15,0,.05.03.1.07.15.06.07.15.13.26.16,0-.06.03-.11.1-.14.07-.03.18-.04.34-.03-.19-.21-.29-.39-.26-.53.04-.14.21-.24.55-.28-.07-.11-.12-.21-.13-.29-.02-.09,0-.16.06-.22-.17-.08-.31-.1-.4-.07-.09.04-.14.14-.16.31h0s-.01,0-.01,0c-.14-.04-.25,0-.32.06-.04.03-.06.08-.08.13-.02.05-.02.1-.02.15Z"/><path class="x" d="M20.34,3.47c-.25-.16.12-.32.4-.23-.48-.47-.37-.76.27-.83-.17-.19-.21-.59-.02-.5,1.38.66.74,2.43-.65,1.56Z"/><path class="v" d="M20.33,3.47c-.05-.03-.08-.07-.09-.1,0-.03,0-.05.02-.07.02-.02.04-.04.08-.06.09-.04.23-.06.36-.03-.12-.12-.2-.23-.24-.33-.04-.08-.04-.16-.02-.23.02-.07.07-.12.15-.16.09-.05.22-.09.39-.11-.08-.1-.13-.24-.14-.35,0-.04,0-.07.01-.1,0-.03.03-.05.05-.06h0s.05,0,.08.01c.52.25.76.66.77,1.02,0,.15-.02.29-.08.41-.06.12-.15.22-.27.29-.25.14-.63.14-1.08-.14h0ZM20.26,3.37s.03.06.08.09h0c.45.28.81.29,1.06.14.12-.07.2-.16.26-.28.06-.12.09-.26.08-.4-.02-.36-.25-.76-.76-1.01-.03-.01-.05-.02-.07,0h0s-.03.02-.04.04c0,.02-.01.06,0,.09,0,.11.06.26.14.36h.01s-.02.02-.02.02c-.17.02-.31.05-.4.11-.08.04-.12.09-.14.15-.02.06-.01.13.02.21h0c.04.1.13.22.26.35v.02c-.14-.04-.29-.03-.39.02-.03.01-.06.03-.07.05-.01.02-.02.04-.02.06Z"/><path class="v" d="M8.97,12.65c-.07.18-.15.34-.23.49-.2.39-.38.73-.19,1.28h0c.12-.02.22-.13.3-.31.09-.21.14-.5.15-.84,0-.19,0-.4-.02-.62h0ZM8.58,13.1c.13-.25.27-.52.34-.88h0s.04-.07.08-.09c.05-.02.1,0,.11.05.06.38.09.74.08,1.05,0,.37-.06.68-.16.91-.11.26-.27.42-.48.46-.03,0-.06,0-.09,0h0s-.05-.02-.06-.04c-.24-.64-.04-1.02.19-1.46Z"/><path class="w" d="M21.22,3.52c-.31-.27-.02-.82.35-.59.1-.32.29-.36.58-.11-.14.08-.13.28-.05.52-.65-.07-.71.22-.45.73-.29-.09-.43-.06-.45.07-.3-.16-.34-.56.02-.61Z"/><path class="v" d="M21.2,3.51c-.11-.1-.14-.24-.11-.36.01-.06.03-.11.06-.15.03-.04.07-.08.12-.11.08-.05.19-.05.3.01.05-.16.13-.25.22-.27.1-.02.22.03.37.16h.01s-.01.02-.01.02c-.07.04-.1.1-.1.19,0,.09.02.2.05.32h0s-.01.01-.01.01c-.32-.04-.5.02-.56.14-.06.13-.01.32.12.57h-.01c-.14-.03-.25-.05-.32-.03-.07.01-.11.05-.11.11h0s-.01,0-.01,0c-.1-.05-.17-.13-.21-.21-.03-.06-.04-.12-.03-.18,0-.06.03-.11.07-.15h0s.1-.07.18-.09h0ZM21.11,3.16c-.02.12,0,.25.12.35h.02s-.02.02-.02.02c-.08.01-.14.04-.19.09h0s-.06.09-.06.14c0,.05,0,.11.03.17.04.08.1.15.19.19.01-.06.05-.1.13-.11.07-.01.17,0,.31.04-.13-.25-.17-.44-.11-.57.07-.13.24-.19.56-.15-.04-.12-.06-.23-.05-.31,0-.09.04-.16.1-.2-.14-.12-.25-.17-.34-.15-.09.02-.16.11-.21.26h0s-.01,0-.01,0c-.11-.07-.21-.06-.29-.02-.04.02-.08.06-.11.1-.03.04-.05.09-.06.15Z"/><path class="x" d="M21.25,4.22c-.19-.21.19-.29.41-.14-.32-.56-.15-.82.44-.75-.11-.22-.05-.62.1-.49,1.09.94.09,2.52-.95,1.38Z"/><path class="v" d="M21.25,4.23s-.06-.09-.05-.12c0-.03.02-.05.04-.07.02-.02.05-.03.09-.04.09-.02.22,0,.32.05-.08-.14-.12-.26-.14-.36-.01-.1,0-.17.04-.23.04-.06.1-.1.19-.13.09-.02.21-.03.36-.01-.05-.12-.06-.27-.04-.38,0-.04.02-.07.03-.09.02-.02.04-.04.06-.04.02,0,.04,0,.07.03.42.37.53.83.45,1.19-.03.14-.1.27-.19.37-.09.1-.2.17-.32.21-.26.07-.58-.03-.9-.38h0ZM21.21,4.11s.01.06.05.11c.32.35.63.44.89.38.12-.03.23-.1.31-.2.09-.1.15-.22.18-.36.09-.36-.02-.81-.44-1.18-.02-.02-.04-.02-.05-.02-.02,0-.03.01-.04.03-.01.02-.02.05-.03.08-.02.11-.01.27.04.38v.02s0,0,0,0c-.15-.02-.27-.01-.37.01-.08.02-.15.06-.18.12-.04.06-.05.13-.03.22.02.11.07.23.15.39h-.01c-.1-.06-.24-.07-.34-.05-.03,0-.06.02-.08.03-.02.01-.03.03-.03.05Z"/><path class="w" d="M22.15,4.39c-.3-.32.07-.88.44-.6.14-.33.35-.36.63-.06-.16.07-.17.28-.11.55-.69-.14-.79.17-.56.73-.3-.13-.46-.11-.49.03-.31-.2-.3-.63.09-.65Z"/><path class="v" d="M22.13,4.39c-.1-.12-.12-.26-.08-.39.02-.06.05-.11.08-.16.04-.04.08-.08.13-.1.09-.04.21-.04.32.05.07-.16.16-.25.27-.26.11-.01.23.06.37.21h0s-.01.02-.01.02c-.08.03-.12.1-.13.19-.01.09,0,.21.02.35h0s-.01.01-.01.01c-.34-.07-.53-.03-.61.09-.08.13-.05.34.07.62h-.01c-.15-.05-.26-.08-.34-.07-.08,0-.12.04-.13.11h0s-.01,0-.01,0c-.1-.06-.17-.15-.2-.24-.02-.06-.03-.13-.02-.19.01-.06.04-.12.09-.16.05-.04.11-.07.2-.08h0ZM22.07,4c-.04.13-.02.27.09.39h.01s-.02.02-.02.02c-.09,0-.16.03-.21.08-.05.04-.07.09-.08.15-.01.06,0,.12.02.18.03.08.09.17.18.23.02-.07.07-.1.15-.11.08,0,.19.02.33.08-.11-.27-.14-.49-.06-.62.08-.13.28-.18.62-.11-.03-.13-.04-.25-.02-.34.01-.09.05-.16.13-.2-.13-.14-.25-.2-.35-.19-.1.01-.19.1-.26.26h0s0,0,0,0c-.11-.08-.22-.09-.31-.05-.05.02-.09.05-.13.1-.04.04-.06.09-.08.15Z"/><path class="x" d="M22.11,5.15c-.18-.24.23-.29.46-.11-.29-.63-.07-.89.55-.75-.09-.25,0-.67.16-.51,1.06,1.11-.17,2.7-1.16,1.37Z"/><path class="v" d="M22.1,5.16c-.04-.05-.05-.1-.04-.13,0-.03.02-.05.05-.07.03-.02.06-.03.1-.03.1-.01.23.02.34.09-.07-.16-.11-.29-.11-.4,0-.1.02-.19.06-.25.05-.06.12-.1.22-.11.1-.02.23,0,.39.02-.04-.13-.04-.3,0-.41.01-.04.03-.07.05-.09h0s.04-.04.07-.04c.02,0,.04.01.07.04.41.43.48.94.35,1.32-.05.15-.13.28-.24.38-.1.1-.23.16-.37.19-.28.05-.61-.09-.92-.5h0ZM22.08,5.03s0,.07.04.12c.3.41.63.54.9.49.13-.02.26-.09.36-.18.1-.1.18-.22.23-.37.13-.37.06-.87-.35-1.3-.02-.02-.04-.03-.05-.03-.02,0-.04.01-.05.03h0s-.03.05-.04.09c-.04.11-.04.29,0,.41v.02s-.01,0-.01,0c-.16-.03-.29-.04-.39-.03-.09.02-.16.05-.21.11-.04.06-.06.13-.06.23,0,.11.05.26.12.43h-.01c-.1-.07-.25-.11-.35-.09-.04,0-.07.01-.09.03-.02.01-.04.03-.04.05Z"/><path class="w" d="M22.9,5.37c-.22-.44.37-.91.67-.5.26-.31.49-.27.69.14-.19.02-.27.25-.3.55-.68-.38-.89-.08-.84.6-.28-.23-.45-.27-.53-.13-.26-.31-.11-.77.31-.67Z"/><path class="v" d="M22.88,5.36c-.07-.16-.04-.32.04-.45.04-.06.09-.1.14-.14.05-.04.12-.06.18-.07.11-.01.23.03.33.15.13-.15.26-.21.37-.19.12.02.23.14.33.35h0s-.01.01-.01.01c-.09.01-.16.07-.2.16-.05.1-.07.23-.09.38h0s-.01,0-.01,0c-.34-.19-.56-.21-.69-.1-.13.11-.17.35-.14.69v.02s-.02-.01-.02-.01c-.14-.12-.25-.18-.34-.2-.08-.02-.14,0-.18.07h0s0,0,0,0c-.08-.1-.13-.22-.13-.32,0-.08.01-.15.04-.21.03-.06.08-.11.15-.14.07-.03.15-.04.24-.02h0ZM22.94,4.92c-.08.12-.11.29-.03.44v.02s-.01,0-.01,0c-.1-.02-.18-.02-.25.01-.06.03-.11.07-.14.13-.03.06-.05.13-.04.2,0,.1.04.21.12.3.04-.06.11-.09.19-.07.09.02.19.08.33.19-.02-.33.02-.57.15-.68.13-.11.36-.1.69.09.02-.15.04-.28.09-.37.05-.1.11-.16.21-.17-.1-.19-.2-.3-.31-.32-.11-.02-.23.04-.36.19h0s0,0,0,0c-.09-.12-.2-.17-.31-.16-.06,0-.12.03-.17.06-.05.03-.1.08-.13.13Z"/><path class="x" d="M22.6,6.17c-.11-.32.34-.23.52.04-.09-.77.22-.97.84-.63-.01-.29.23-.71.34-.49.76,1.53-1.08,2.83-1.7,1.08Z"/><path class="v" d="M22.59,6.17c-.02-.07-.02-.12,0-.16.02-.03.04-.04.07-.05.03,0,.07,0,.11,0,.11.02.25.1.33.21-.02-.19-.02-.35.01-.47.03-.11.08-.19.15-.24.07-.05.16-.07.27-.05.11.02.25.07.4.15,0-.15.06-.33.14-.44h0s.05-.07.08-.08c.03-.02.06-.03.08-.02.02,0,.04.03.06.06.3.6.2,1.16-.07,1.52-.1.14-.24.25-.38.32-.14.07-.3.1-.45.08-.31-.04-.62-.29-.82-.83h0ZM22.6,6.02s-.02.08,0,.14c.19.53.49.78.8.82.15.02.3,0,.44-.08.14-.07.27-.18.37-.32.26-.36.36-.91.06-1.5-.01-.03-.03-.04-.05-.05-.02,0-.04,0-.07.01-.02.02-.05.04-.07.08h0c-.08.11-.14.29-.13.44v.02s-.01,0-.01,0c-.16-.09-.3-.14-.41-.16-.11-.01-.19,0-.26.05-.07.05-.12.12-.14.23-.03.12-.04.29-.01.5h-.02c-.08-.12-.23-.2-.34-.22-.04,0-.07,0-.1,0-.03,0-.05.02-.06.04Z"/><path class="w" d="M23.27,6.53c-.15-.47.5-.84.73-.37.31-.26.52-.18.66.26-.19-.01-.31.19-.38.49-.61-.49-.87-.24-.92.44-.24-.28-.4-.34-.5-.22-.21-.35.01-.78.41-.61Z"/><path class="v" d="M23.26,6.51c-.05-.17,0-.32.11-.43h0s.1-.09.16-.11c.06-.03.12-.04.18-.03.12,0,.23.07.3.21.15-.12.28-.17.4-.12.11.04.2.18.27.4h0s-.01.01-.01.01c-.09,0-.17.04-.23.13-.06.09-.11.21-.15.36h0s-.01,0-.01,0c-.3-.24-.52-.3-.66-.22-.14.09-.22.32-.24.65h-.02c-.12-.13-.22-.22-.3-.25-.08-.03-.14-.02-.19.04h0s0,0,0,0c-.07-.12-.09-.24-.08-.35,0-.07.04-.14.08-.19.04-.05.1-.09.17-.11.07-.02.15-.01.24.02h0ZM23.38,6.09h0c-.1.11-.15.26-.1.43v.02s-.01,0-.01,0c-.09-.04-.18-.05-.25-.03-.06.02-.12.05-.15.1-.04.05-.06.11-.07.19-.01.1,0,.22.07.33.05-.06.12-.07.2-.03.08.03.18.11.29.25.03-.33.1-.56.25-.65.15-.09.36-.03.67.21.04-.14.08-.26.15-.35.06-.09.14-.14.23-.13-.07-.21-.15-.33-.25-.37-.11-.04-.23,0-.39.13h0s0,0,0,0c-.07-.14-.18-.2-.29-.21-.06,0-.12,0-.18.03-.06.02-.11.06-.15.11Z"/><path class="x" d="M22.86,7.26c-.06-.33.37-.17.51.13.03-.78.36-.92.92-.47.03-.29.34-.66.41-.43.51,1.65-1.49,2.6-1.84.77Z"/><path class="v" d="M22.85,7.26c-.01-.07,0-.12.02-.15.02-.02.05-.04.08-.04.03,0,.07,0,.11.02.11.04.23.14.3.27,0-.2.04-.35.09-.46.04-.1.11-.17.18-.21.08-.04.17-.04.27,0,.11.04.24.11.38.22.02-.15.11-.31.2-.41.03-.03.06-.06.09-.07.03-.01.06-.02.08,0,.02.01.04.03.05.07.2.64.02,1.17-.29,1.49-.12.12-.27.21-.42.26-.15.05-.31.05-.46,0-.31-.09-.58-.4-.69-.97h0ZM22.89,7.12s-.03.07-.02.14c.11.57.37.86.67.96.15.04.3.04.45,0,.15-.04.29-.13.41-.25.31-.31.48-.84.29-1.47h0s-.02-.05-.04-.06c-.02-.01-.04,0-.07,0-.03.01-.06.04-.09.07-.09.1-.18.27-.2.41v.02s-.02-.01-.02-.01c-.14-.12-.27-.19-.39-.23-.1-.03-.19-.03-.26,0-.07.03-.13.1-.17.2-.05.12-.08.28-.09.49h-.02c-.06-.13-.19-.24-.3-.28-.04-.01-.07-.02-.1-.02-.03,0-.05.01-.07.03Z"/><path class="v" d="M5.52,12.17c.08,0,.16.01.23.02.54.06,1.09.22,1.49.45.43.24.71.57.69.96h0s0,.03,0,.04c0,.04-.03.06-.07.06-.54.03-.77-.18-1.09-.49-.26-.25-.6-.56-1.26-.86-.05-.02-.08-.08-.07-.12,0-.03.04-.05.07-.05h0ZM7.19,12.79c-.33-.19-.77-.32-1.21-.39.44.25.7.5.91.7.27.26.46.43.87.43,0-.29-.22-.54-.57-.73Z"/><path class="w" d="M23.59,7.82c-.05-.51.68-.77.82-.26.37-.21.57-.09.62.38-.19-.04-.35.15-.49.44-.53-.61-.84-.39-1.03.3-.19-.33-.34-.42-.47-.31-.14-.4.17-.8.54-.55Z"/><path class="v" d="M23.57,7.8c-.01-.19.08-.34.21-.43.06-.04.12-.07.19-.09.07-.02.13-.02.19,0,.11.03.21.11.25.26.18-.1.32-.12.43-.06.11.06.17.21.19.45h0s-.01.01-.01.01c-.09-.02-.18.02-.26.09-.08.08-.15.2-.22.34h0s0,0,0,0c-.26-.3-.47-.4-.63-.33-.16.06-.29.29-.38.63v.02s-.02-.02-.02-.02c-.09-.16-.18-.26-.25-.31-.07-.05-.14-.04-.2,0h-.01s0,0,0,0c-.05-.13-.04-.25-.01-.36.02-.08.07-.14.12-.19.05-.05.12-.08.2-.08.07,0,.15.02.23.07h0ZM23.79,7.39c-.13.09-.22.25-.2.43v.02s-.01-.01-.01-.01c-.08-.06-.17-.08-.24-.07h0c-.07,0-.13.03-.19.08-.05.05-.09.11-.11.18-.03.1-.03.22,0,.34.06-.05.14-.05.21,0,.08.05.16.15.25.3.1-.33.22-.55.39-.62.17-.07.38.03.64.33.07-.14.14-.26.22-.33.08-.08.17-.12.26-.1-.02-.23-.08-.37-.18-.43-.1-.06-.24-.04-.42.07h-.01s0,0,0,0c-.04-.15-.13-.23-.24-.26-.06-.02-.12-.01-.19,0-.06.01-.13.04-.18.08Z"/><path class="x" d="M23.01,8.5c0-.35.41-.11.49.21.19-.79.56-.88,1.04-.33.09-.29.48-.62.51-.37.18,1.77-2.06,2.41-2.04.48Z"/><path class="v" d="M23,8.5c0-.08.02-.13.05-.16.03-.02.06-.03.09-.03.03,0,.07.02.11.04.1.06.2.18.25.32.05-.2.11-.35.19-.46.07-.1.15-.16.23-.18s.18,0,.28.05c.1.06.21.15.33.28.05-.15.18-.31.29-.39.04-.03.07-.05.11-.05.03,0,.06,0,.09.01.02.02.03.04.03.08.07.7-.23,1.22-.63,1.48-.15.1-.32.16-.48.18-.16.02-.32,0-.47-.09-.28-.15-.49-.5-.48-1.09h0ZM23.07,8.36s-.05.07-.05.14c0,.58.19.93.47,1.08.14.07.29.1.46.08.16-.02.32-.08.47-.18.39-.26.69-.78.62-1.47,0-.03-.01-.05-.03-.07-.02-.01-.04-.02-.07,0-.03,0-.06.03-.1.05-.11.08-.24.24-.29.39v.02s-.02-.01-.02-.01c-.12-.14-.23-.24-.34-.29-.1-.05-.19-.07-.27-.05-.08.02-.16.08-.22.18-.08.11-.14.27-.19.49h-.02c-.04-.15-.14-.28-.25-.34-.04-.02-.07-.03-.1-.04-.03,0-.06,0-.08.02Z"/><path class="v" d="M5.8,13.37c.1,0,.2.01.31.03.56.06,1.2.21,1.7.42.53.23.91.55.89.94h0s0,.02,0,.03c0,.04-.03.06-.07.06-.51.03-.78-.17-1.18-.45-.35-.25-.8-.57-1.64-.86-.05-.02-.09-.07-.08-.11,0-.04.04-.06.07-.06h0ZM7.78,13.97c-.39-.17-.88-.29-1.34-.37.51.23.83.46,1.1.65.34.24.57.41.98.4,0-.27-.31-.51-.74-.69Z"/><path class="w" d="M23.56,9c.02-.51.78-.67.85-.14.39-.16.58-.02.56.46-.19-.07-.37.1-.55.37-.44-.67-.78-.5-1.06.16-.14-.35-.28-.46-.42-.37-.09-.41.28-.76.61-.47Z"/><path class="v" d="M23.55,8.99c.01-.19.13-.32.27-.4.06-.03.13-.05.2-.06h0c.07,0,.13,0,.19.03.11.04.19.14.21.29.19-.08.34-.08.43,0,.1.08.14.23.13.47h0s-.01,0-.01,0c-.09-.03-.18,0-.27.06-.09.07-.18.18-.27.31h0s0,0,0,0c-.22-.33-.41-.45-.58-.41-.17.04-.33.25-.47.57v.02s-.02-.02-.02-.02c-.07-.17-.14-.29-.21-.34-.07-.06-.13-.06-.2-.02h-.01s0,0,0,0c-.03-.13,0-.26.04-.36.04-.07.09-.13.15-.17.06-.04.13-.06.21-.06.07,0,.15.04.22.1h0ZM23.82,8.6c-.14.07-.25.21-.26.4v.02s-.02-.01-.02-.01c-.08-.07-.15-.1-.23-.1-.07,0-.14.01-.19.05-.06.04-.11.1-.14.17-.05.09-.06.21-.04.33.07-.04.14-.03.21.03.07.06.14.17.2.33.14-.32.3-.52.47-.56.18-.04.37.08.59.41.09-.13.18-.24.27-.3.09-.07.18-.09.27-.06,0-.23-.03-.37-.12-.45-.09-.07-.23-.07-.43,0h-.01s0,0,0,0c-.02-.15-.1-.25-.2-.29-.06-.02-.12-.03-.18-.03h0c-.06,0-.13.03-.19.06Z"/><path class="x" d="M22.9,9.6c.05-.35.42-.05.46.28.29-.76.68-.8,1.07-.19.13-.28.56-.55.55-.3-.06,1.78-2.38,2.11-2.08.2Z"/><path class="v" d="M22.89,9.6c.01-.08.04-.12.08-.15.03-.02.06-.02.09-.01.03,0,.07.03.1.05.09.07.17.21.2.35.08-.19.16-.33.25-.43.08-.09.17-.14.26-.15.09-.01.18.02.27.09.09.07.19.18.29.33.07-.14.22-.28.34-.35.04-.02.08-.04.11-.04.03,0,.06,0,.08.02h0s.02.05.02.08c-.03.7-.4,1.18-.83,1.39h0c-.17.08-.34.12-.5.11-.16,0-.32-.05-.45-.15-.26-.19-.41-.57-.32-1.15h0ZM22.97,9.47s-.06.06-.07.13c-.09.57.06.94.31,1.13.13.09.28.14.44.15.16,0,.33-.03.49-.11h0c.42-.2.79-.67.82-1.37,0-.03,0-.06-.02-.07h0s-.04-.02-.07-.02c-.03,0-.07.02-.11.04-.13.07-.28.21-.34.35v.02s-.02-.01-.02-.01c-.1-.15-.2-.27-.29-.34-.09-.06-.18-.09-.26-.08-.08,0-.17.06-.25.14-.09.1-.18.25-.26.46h-.02c-.02-.15-.1-.3-.2-.37-.03-.03-.06-.04-.09-.05-.03,0-.06,0-.08,0Z"/><path class="w" d="M23.45,10.19c.13-.49.96-.47.91.06.44-.06.6.12.47.58-.18-.11-.4,0-.65.23-.3-.76-.68-.66-1.13-.09-.06-.37-.18-.51-.35-.46,0-.42.46-.68.74-.32Z"/><path class="v" d="M23.45,10.17c.06-.18.2-.29.36-.33.07-.02.15-.02.22-.01.07,0,.14.03.19.07.1.07.16.18.15.33.22-.03.37,0,.45.1.08.1.09.26.02.49h0s-.01,0-.01,0c-.09-.05-.18-.05-.29,0-.11.04-.22.13-.35.24h-.01s0,0,0,0c-.15-.37-.31-.54-.5-.54-.19,0-.39.16-.61.45v.02s-.02-.02-.02-.02c-.03-.18-.08-.31-.13-.38-.06-.07-.12-.09-.2-.07h-.01s0,0,0,0c0-.13.04-.24.11-.33.05-.07.12-.12.19-.15.07-.03.15-.03.23-.01.07.02.15.07.21.15h0ZM23.81,9.86c-.16.04-.3.15-.35.33v.02s-.02-.02-.02-.02c-.06-.08-.14-.13-.21-.16-.07-.02-.15-.02-.22.01-.07.03-.13.08-.18.14-.06.08-.1.18-.11.3.08-.02.15,0,.21.08.06.07.1.2.13.37.22-.28.42-.44.61-.44.19,0,.36.16.51.54.12-.11.24-.19.34-.23.11-.04.21-.05.3,0,.06-.22.05-.37-.02-.46-.08-.09-.22-.12-.44-.09h-.01s0-.01,0-.01c.01-.15-.05-.26-.14-.33-.05-.04-.12-.06-.19-.07-.07,0-.14,0-.21.01Z"/><path class="x" d="M22.63,10.62c.13-.33.45.05.41.38.47-.67.88-.62,1.15.07.2-.24.7-.4.64-.16-.47,1.72-2.93,1.5-2.19-.29Z"/><path class="v" d="M22.63,10.61c.03-.07.07-.11.11-.13.03-.01.07,0,.1.01.03.02.06.04.09.08h0c.08.09.13.24.12.39.17-.23.32-.37.47-.42.06-.02.13-.03.19-.03.06,0,.12.03.17.07.12.08.22.24.31.47.11-.12.29-.22.43-.26.05-.01.09-.02.13-.01.04,0,.06.02.08.04.01.02.01.05,0,.08-.19.68-.69,1.06-1.17,1.16-.19.04-.38.03-.55-.01-.17-.05-.32-.13-.43-.26-.21-.25-.28-.65-.06-1.18h0ZM22.74,10.51s-.07.05-.1.11c-.22.53-.15.92.06,1.16.11.12.25.21.42.25.17.04.35.05.54.01.48-.1.98-.47,1.16-1.14,0-.03,0-.05,0-.07-.01-.02-.03-.03-.06-.04-.03,0-.07,0-.12.01-.14.03-.33.14-.43.26h-.01s0,0,0,0c-.09-.23-.19-.39-.31-.47-.05-.04-.11-.06-.16-.07-.06,0-.12,0-.18.02-.15.06-.31.2-.48.44h-.02c.02-.16-.04-.32-.12-.41-.03-.03-.06-.06-.09-.07-.03-.01-.06-.02-.09,0Z"/><path class="w" d="M23.06,11.39c.16-.46.93-.36.85.15.42-.01.55.18.4.61-.16-.13-.38-.03-.62.15-.22-.77-.59-.72-1.05-.21-.03-.37-.13-.51-.29-.48.04-.41.48-.61.71-.23Z"/><path class="v" d="M23.06,11.37c.06-.16.2-.25.34-.27.07-.01.14-.01.21,0,.07.02.13.04.18.08.09.08.15.19.13.35.21,0,.34.04.41.14.07.1.07.26-.01.48h0s-.01,0-.01,0c-.08-.06-.17-.07-.27-.04-.1.03-.22.1-.34.19h-.01s0,0,0,0c-.11-.38-.26-.56-.43-.58-.17-.02-.38.12-.6.37v.02s-.02-.02-.02-.02c-.02-.18-.05-.31-.1-.39-.05-.07-.11-.1-.18-.08h-.01s0-.01,0-.01c.01-.13.06-.23.13-.31.05-.06.12-.1.18-.12.07-.02.14-.02.21,0,.07.03.14.08.2.17h0ZM23.41,11.11c-.14.03-.28.12-.34.28v.02s-.02-.02-.02-.02c-.06-.09-.12-.15-.2-.18-.07-.03-.13-.03-.2,0-.06.02-.13.06-.18.11-.07.07-.11.17-.13.29.08-.01.14.02.19.1.05.08.08.2.1.37.22-.24.43-.38.6-.36.18.02.33.2.44.58.12-.09.23-.16.34-.19.1-.03.2-.02.28.03.07-.21.07-.35.01-.45-.07-.1-.2-.14-.4-.13h-.01s0-.01,0-.01c.03-.15-.03-.27-.12-.34-.05-.04-.11-.07-.17-.08-.06-.01-.13-.02-.2,0Z"/><path class="x" d="M22.27,11.72c.15-.3.42.1.35.41.49-.6.87-.51,1.07.19.2-.21.68-.31.61-.09-.56,1.61-2.84,1.14-2.03-.51Z"/><path class="v" d="M22.26,11.71c.03-.06.07-.1.11-.11.03,0,.06,0,.09.02.03.02.06.05.08.08.07.1.11.25.09.39.12-.14.23-.24.34-.3.11-.06.2-.08.29-.06.09.02.17.08.24.17.07.1.13.23.18.4.11-.1.28-.18.42-.2.05,0,.09,0,.12,0h0s.06.02.07.05c.01.02.01.05,0,.08-.22.62-.69.94-1.14.99-.18.02-.36,0-.52-.05-.16-.06-.29-.15-.39-.28-.2-.26-.24-.66.01-1.18h0ZM22.38,11.62s-.07.04-.1.1c-.25.51-.21.9-.01,1.16.1.13.23.22.38.28.15.06.33.07.51.05.45-.05.91-.36,1.13-.98.01-.03.01-.05,0-.07,0-.02-.03-.03-.06-.04-.03,0-.07,0-.11,0-.14.02-.31.1-.42.21h-.01s0,0,0,0c-.05-.18-.11-.31-.18-.41-.07-.09-.15-.15-.23-.16-.09-.02-.18,0-.28.06-.11.06-.23.17-.35.32h-.02c.03-.15-.01-.32-.08-.42-.02-.03-.05-.06-.08-.08-.03-.02-.05-.02-.08-.02Z"/><path class="x" d="M22.12,14.31l-.08.2-.14-.05.09-.22c-.37-.24-.56-.73-.23-1.39.15-.29.42.12.35.43.49-.57.87-.45,1.07.25.2-.2.68-.27.61-.05-.31.86-1.12,1.07-1.67.82Z"/><path class="v" d="M22.13,14.32l-.08.19h0s0,0,0,0l-.14-.05h0s0-.01,0-.01l.08-.21c-.2-.13-.34-.33-.39-.59-.04-.23,0-.5.16-.81.03-.06.07-.09.11-.1.03,0,.06,0,.09.02.03.02.06.05.08.09.07.1.11.26.09.4.16-.18.31-.29.44-.32.06-.02.12-.02.18,0,.06.01.11.04.16.08.11.1.2.27.27.52.11-.1.28-.16.41-.18.05,0,.09,0,.13,0,.04,0,.06.03.08.06.01.02.01.05,0,.08-.02.05-.03.09-.05.13-.16.36-.42.59-.7.7-.28.12-.59.12-.85.03-.02,0-.05-.02-.07-.03h0ZM22.04,14.5l.08-.19h0s0,0,0,0c.03.01.05.02.08.03.25.09.56.09.83-.03.28-.11.53-.34.69-.69.02-.04.04-.08.05-.13.01-.03.01-.05,0-.07,0-.02-.03-.04-.06-.04-.03,0-.07-.01-.12,0-.14.01-.31.08-.41.18h-.01s0,0,0,0c-.07-.25-.16-.43-.27-.52-.05-.04-.1-.07-.15-.08-.05-.01-.11,0-.17,0-.14.04-.29.15-.46.34h-.02c.03-.15-.02-.32-.09-.43-.02-.04-.05-.06-.08-.08-.03-.02-.05-.02-.08-.02-.03,0-.06.04-.09.09-.16.31-.2.57-.16.8.04.26.19.45.38.58h0s0,.01,0,.01l-.08.21.12.05Z"/><path class="w" d="M22.56,12.57c.16-.45.93-.3.85.2.42.01.55.21.4.64-.16-.14-.38-.06-.62.12-.22-.78-.59-.75-1.05-.27-.03-.37-.13-.52-.29-.5.04-.41.48-.58.71-.18Z"/><path class="v" d="M22.56,12.55c.06-.15.19-.23.32-.25.07-.01.14,0,.21,0,.07.02.13.05.19.09.1.08.17.21.14.37.21,0,.34.06.41.17.07.11.06.27-.01.48h0s-.01,0-.01,0c-.08-.07-.17-.08-.27-.06-.1.02-.22.09-.34.17h-.01s0,0,0,0c-.11-.39-.26-.57-.43-.6-.17-.03-.38.09-.6.33v.02s-.02-.02-.02-.02c-.02-.18-.05-.31-.1-.39-.05-.08-.11-.11-.18-.1h-.01s0-.01,0-.01c.01-.12.06-.22.13-.3.05-.05.11-.09.18-.11.07-.02.14-.01.21.01.08.03.15.09.21.19h0ZM22.88,12.32c-.14.02-.26.1-.31.26v.02s-.02-.02-.02-.02c-.06-.1-.13-.16-.21-.2-.06-.03-.13-.03-.19-.01-.06.02-.12.05-.17.1-.06.07-.11.16-.12.27.08,0,.14.03.19.11.05.08.08.2.1.38.22-.23.43-.35.6-.32.18.03.33.22.44.6.12-.08.23-.14.34-.17.1-.02.2-.01.28.05.07-.2.07-.35,0-.45-.07-.1-.2-.15-.41-.16h-.01s0-.01,0-.01c.03-.16-.03-.28-.13-.36-.05-.04-.11-.07-.18-.09-.07-.02-.13-.02-.2,0Z"/><g class="ab"><rect class="i" x="13.21" y="5.67" width="1.37" height=".42"/><rect class="i" x="12.67" y="6.09" width="1.37" height=".42"/><rect class="i" x="12.67" y="7.75" width="1.37" height=".42"/><rect class="i" x="12.91" y="8.17" width="1.37" height=".42"/><rect class="i" x="12.91" y="8.59" width="1.37" height=".42"/><rect class="i" x="12.67" y="9" width="1.37" height=".42"/><rect class="l" x="12.18" y="6.51" width="1.37" height=".42"/><rect class="l" x="12.18" y="7.34" width="1.37" height=".42"/><rect class="l" x="12.18" y="9.42" width="1.37" height=".42"/><rect class="l" x="12.18" y="11.92" width="1.37" height=".42"/><rect class="i" x="11.54" y="6.92" width="1.37" height=".42"/><rect class="i" x="11.54" y="9.84" width="1.37" height=".42"/><rect class="i" x="11.54" y="11.5" width="1.37" height=".42"/><rect class="i" x="11.54" y="12.33" width="1.37" height=".42"/><rect class="i" x="12.39" y="10.25" width="1.37" height=".42"/><rect class="i" x="12.39" y="11.08" width="1.37" height=".42"/><rect class="i" x="12.39" y="12.75" width="1.37" height=".42"/><rect class="i" x="11.64" y="10.67" width="1.37" height=".42"/><rect class="i" x="11.64" y="13.17" width="1.37" height=".42"/><rect class="i" x="12.68" y="13.58" width="1.37" height=".42"/><rect class="i" x="12.27" y="14" width="1.37" height=".42"/><rect class="n" x="13.52" y="14.41" width="1.46" height=".42"/><rect class="n" x="13.52" y="15.25" width="1.46" height=".42"/><rect class="n" x="13.52" y="16.08" width="1.46" height=".42"/><rect class="n" x="13.52" y="16.91" width="1.46" height=".42"/><rect class="l" x="11.03" y="10.25" width="1.37" height=".42"/><rect class="l" x="11.03" y="11.08" width="1.37" height=".42"/><rect class="l" x="11.03" y="12.75" width="1.37" height=".42"/><rect class="l" x="10.27" y="10.67" width="1.37" height=".42"/><rect class="l" x="10.27" y="13.17" width="1.37" height=".42"/><rect class="i" x="11.31" y="13.58" width="1.37" height=".42"/><rect class="i" x="10.9" y="14" width="1.37" height=".42"/><rect class="j" x="12.06" y="14.41" width="1.46" height=".42"/><rect class="j" x="12.06" y="15.25" width="1.46" height=".42"/><rect class="j" x="12.06" y="16.08" width="1.46" height=".42"/><rect class="j" x="12.06" y="16.91" width="1.46" height=".42"/><rect class="l" x="9.94" y="13.58" width="1.37" height=".42"/><rect class="l" x="9.53" y="14" width="1.37" height=".42"/><rect class="j" x="10.61" y="14.41" width="1.46" height=".42"/><rect class="j" x="10.61" y="15.25" width="1.46" height=".42"/><rect class="j" x="10.61" y="16.08" width="1.46" height=".42"/><rect class="j" x="10.61" y="16.91" width="1.46" height=".42"/><rect class="j" x="9.15" y="14.41" width="1.46" height=".42"/><rect class="j" x="9.15" y="15.25" width="1.46" height=".42"/><rect class="j" x="9.15" y="16.08" width="1.46" height=".42"/><rect class="j" x="9.15" y="16.91" width="1.46" height=".42"/><rect class="i" x="13.55" y="6.51" width="1.37" height=".42"/><rect class="i" x="13.55" y="7.34" width="1.37" height=".42"/><rect class="i" x="13.55" y="9.42" width="1.37" height=".42"/><rect class="i" x="13.55" y="11.92" width="1.37" height=".42"/><rect class="i" x="12.9" y="6.92" width="1.37" height=".42"/><rect class="i" x="12.9" y="9.84" width="1.37" height=".42"/><rect class="i" x="12.9" y="11.5" width="1.37" height=".42"/><rect class="i" x="12.9" y="12.33" width="1.37" height=".42"/><rect class="i" x="13.76" y="10.25" width="1.37" height=".42"/><rect class="i" x="13.76" y="11.08" width="1.37" height=".42"/><rect class="i" x="13.76" y="12.75" width="1.37" height=".42"/><rect class="i" x="13.01" y="10.67" width="1.37" height=".42"/><rect class="i" x="13.01" y="13.17" width="1.37" height=".42"/><rect class="i" x="14.04" y="13.58" width="1.37" height=".42"/><rect class="i" x="13.63" y="14" width="1.37" height=".42"/><rect class="f" x="11.63" y="14.83" width="1.24" height=".42"/><rect class="f" x="10.39" y="14.83" width="1.24" height=".42"/><rect class="f" x="9.15" y="14.83" width="1.24" height=".42"/><rect class="k" x="12.88" y="14.83" width="1.24" height=".42"/><rect class="f" x="11.63" y="15.66" width="1.24" height=".42"/><rect class="f" x="10.39" y="15.66" width="1.24" height=".42"/><rect class="f" x="9.15" y="15.66" width="1.24" height=".42"/><rect class="k" x="12.88" y="15.66" width="1.24" height=".42"/><rect class="f" x="11.63" y="16.49" width="1.24" height=".42"/><rect class="f" x="10.39" y="16.49" width="1.24" height=".42"/><rect class="f" x="9.15" y="16.49" width="1.24" height=".42"/><rect class="k" x="12.88" y="16.49" width="1.24" height=".42"/></g><g class="ad"><rect class="l" x="15.72" y="5.67" width="1.37" height=".42"/><rect class="l" x="16.25" y="6.09" width="1.37" height=".42"/><rect class="l" x="16.25" y="7.75" width="1.37" height=".42"/><rect class="l" x="16.01" y="8.17" width="1.37" height=".42"/><rect class="l" x="16.01" y="8.59" width="1.37" height=".42"/><rect class="l" x="16.25" y="9" width="1.37" height=".42"/><rect class="l" x="16.74" y="6.51" width="1.37" height=".42"/><rect class="l" x="16.74" y="7.34" width="1.37" height=".42"/><rect class="l" x="16.74" y="9.42" width="1.37" height=".42"/><rect class="l" x="16.74" y="11.92" width="1.37" height=".42"/><rect class="l" x="17.39" y="6.92" width="1.37" height=".42"/><rect class="l" x="17.39" y="9.84" width="1.37" height=".42"/><rect class="l" x="17.39" y="11.5" width="1.37" height=".42"/><rect class="l" x="17.39" y="12.33" width="1.37" height=".42"/><rect class="l" x="16.53" y="10.25" width="1.37" height=".42"/><rect class="l" x="16.53" y="11.08" width="1.37" height=".42"/><rect class="l" x="16.53" y="12.75" width="1.37" height=".42"/><rect class="l" x="17.28" y="10.67" width="1.37" height=".42"/><rect class="l" x="17.28" y="13.17" width="1.37" height=".42"/><rect class="l" x="16.24" y="13.58" width="1.37" height=".42"/><rect class="l" x="16.65" y="14" width="1.37" height=".42"/><rect class="n" x="15.31" y="14.41" width="1.46" height=".42"/><rect class="n" x="15.31" y="15.25" width="1.46" height=".42"/><rect class="n" x="15.31" y="16.08" width="1.46" height=".42"/><rect class="n" x="15.31" y="16.91" width="1.46" height=".42"/><rect class="i" x="17.9" y="10.25" width="1.37" height=".42"/><rect class="i" x="17.9" y="11.08" width="1.37" height=".42"/><rect class="i" x="17.9" y="12.75" width="1.37" height=".42"/><rect class="l" x="18.65" y="10.67" width="1.37" height=".42"/><rect class="l" x="18.65" y="13.17" width="1.37" height=".42"/><rect class="l" x="17.61" y="13.58" width="1.37" height=".42"/><rect class="l" x="18.02" y="14" width="1.37" height=".42"/><rect class="j" x="16.77" y="14.41" width="1.46" height=".42"/><rect class="j" x="16.77" y="15.25" width="1.46" height=".42"/><rect class="j" x="16.77" y="16.08" width="1.46" height=".42"/><rect class="j" x="16.77" y="16.91" width="1.46" height=".42"/><rect class="i" x="18.98" y="13.58" width="1.37" height=".42"/><rect class="l" x="19.39" y="14" width="1.37" height=".42"/><rect class="n" x="18.22" y="14.41" width="1.46" height=".42"/><rect class="n" x="18.22" y="15.25" width="1.46" height=".42"/><rect class="n" x="18.22" y="16.08" width="1.46" height=".42"/><rect class="n" x="18.22" y="16.91" width="1.46" height=".42"/><rect class="j" x="19.68" y="14.41" width="1.46" height=".42"/><rect class="j" x="19.68" y="15.25" width="1.46" height=".42"/><rect class="j" x="19.68" y="16.08" width="1.46" height=".42"/><rect class="j" x="19.68" y="16.91" width="1.46" height=".42"/><rect class="l" x="15.37" y="6.51" width="1.37" height=".42"/><rect class="l" x="15.37" y="7.34" width="1.37" height=".42"/><rect class="l" x="15.37" y="9.42" width="1.37" height=".42"/><rect class="l" x="15.37" y="11.92" width="1.37" height=".42"/><rect class="l" x="16.02" y="6.92" width="1.37" height=".42"/><rect class="l" x="16.02" y="9.84" width="1.37" height=".42"/><rect class="l" x="16.02" y="11.5" width="1.37" height=".42"/><rect class="l" x="16.02" y="12.33" width="1.37" height=".42"/><rect class="i" x="15.16" y="10.25" width="1.37" height=".42"/><rect class="i" x="15.16" y="11.08" width="1.37" height=".42"/><rect class="i" x="15.16" y="12.75" width="1.37" height=".42"/><rect class="l" x="15.91" y="10.67" width="1.37" height=".42"/><rect class="l" x="15.91" y="13.17" width="1.37" height=".42"/><rect class="l" x="14.88" y="13.58" width="1.37" height=".42"/><rect class="l" x="15.29" y="14" width="1.37" height=".42"/><rect class="f" x="17.41" y="14.83" width="1.24" height=".42"/><rect class="f" x="18.65" y="14.83" width="1.24" height=".42"/><rect class="f" x="19.9" y="14.83" width="1.24" height=".42"/><rect class="f" x="16.17" y="14.83" width="1.24" height=".42"/><rect class="f" x="17.41" y="15.66" width="1.24" height=".42"/><rect class="f" x="18.65" y="15.66" width="1.24" height=".42"/><rect class="f" x="19.9" y="15.66" width="1.24" height=".42"/><rect class="f" x="16.17" y="15.66" width="1.24" height=".42"/><rect class="f" x="17.41" y="16.49" width="1.24" height=".42"/><rect class="f" x="18.65" y="16.49" width="1.24" height=".42"/><rect class="f" x="19.9" y="16.49" width="1.24" height=".42"/><rect class="f" x="16.17" y="16.49" width="1.24" height=".42"/></g><path class="u" d="M.14,23.97c2.43.78,4.85,1.16,7.28.71v3.66c-2.43.05-4.87-.29-7.3-.89l2.07-1.45L.14,23.97Z"/><path class="v" d="M.18,23.85c1.21.39,2.41.67,3.61.81,1.2.13,2.4.12,3.6-.11.07-.01.14.03.15.1,0,0,0,.02,0,.02h0v3.66c0,.07-.06.13-.13.13,0,0,0,0,0,0-1.22.03-2.44-.05-3.66-.2-1.22-.15-2.44-.39-3.66-.69-.07-.02-.11-.09-.09-.15,0-.03.03-.06.05-.07l1.94-1.36L.05,24.06s-.05-.13,0-.18c.04-.04.09-.05.13-.03H.18ZM3.77,24.91c-1.06-.12-2.11-.35-3.17-.67l1.68,1.66s.01.01.02.02c.04.06.03.14-.03.18l-1.84,1.29c1.12.27,2.24.48,3.36.62,1.17.15,2.34.22,3.51.2v-3.39c-1.18.2-2.35.21-3.53.08Z"/><polygon class="p" points="7.4 24.71 7.4 27.14 4.57 26.77 4.57 25.93 7.4 24.71"/><path class="u" d="M30.49,23.97c-2.43.78-4.85,1.16-7.28.71v3.66c2.43.05,4.87-.29,7.3-.89l-2.07-1.45,2.05-2.03Z"/><path class="v" d="M30.04,24.24c-1.06.31-2.11.55-3.17.67-1.17.13-2.35.12-3.53-.08v3.39c1.17.02,2.34-.05,3.51-.2,1.12-.14,2.24-.35,3.36-.62l-1.84-1.29c-.06-.04-.07-.12-.03-.18,0,0,.01-.02.02-.02l1.68-1.66h0ZM26.84,24.66c1.2-.13,2.41-.42,3.61-.81.04-.01.1,0,.13.03.05.05.05.13,0,.18l-1.94,1.92,1.94,1.36s.05.04.05.07c.02.07-.02.14-.09.15-1.22.3-2.44.54-3.66.69-1.22.15-2.44.23-3.66.2,0,0,0,0,0,0-.07,0-.13-.06-.13-.13v-3.66h0s0-.02,0-.02c.01-.07.08-.11.15-.1,1.2.22,2.4.24,3.6.11Z"/><polygon class="o" points="23.24 24.71 23.24 27.14 26.07 26.77 26.06 25.93 23.24 24.71"/><path class="u" d="M4.57,25.97c7.15,3.24,14.32,3.24,21.54,0v3.17c-7.24,3.11-14.43,3.31-21.54,0v-3.17Z"/><path class="v" d="M4.63,25.86c3.55,1.61,7.11,2.42,10.68,2.42s7.15-.81,10.74-2.42c.06-.03.14,0,.17.06,0,.02.01.03.01.05h0v3.17c0,.06-.04.1-.09.12-3.63,1.56-7.25,2.39-10.86,2.41-3.61.03-7.2-.76-10.77-2.42-.05-.02-.07-.07-.07-.11h0v-3.17c0-.07.06-.13.13-.13.02,0,.04,0,.06.02h0ZM15.31,28.53c-3.55,0-7.09-.79-10.62-2.36v2.9c3.51,1.62,7.04,2.39,10.59,2.36,3.55-.02,7.11-.84,10.69-2.37v-2.9c-3.56,1.58-7.12,2.36-10.67,2.36Z"/><path class="v" d="M5.09,28.68v-1.69l.38.15c.07.03.13.06.16.11.04.04.07.11.09.19.02.08.03.18.03.29,0,.09,0,.17-.03.23-.02.06-.04.11-.07.14-.02.02-.05.03-.08.03.03.03.05.06.06.09,0,.02.02.05.04.1.02.05.03.09.03.12l.11.53-.26-.1-.12-.56c-.02-.07-.03-.12-.04-.15-.02-.03-.04-.05-.06-.06h-.02s0,.68,0,.68l-.23-.09h0ZM5.32,27.77l.1.04s.03,0,.06,0c.02,0,.03-.01.04-.04,0-.02.01-.06.01-.09,0-.05,0-.1-.02-.13-.02-.04-.04-.06-.09-.08l-.1-.04v.34h0ZM6.36,28.89l-.26-.09-.04.27-.24-.08.28-1.59.25.09.28,1.79-.24-.09-.04-.29h0ZM6.31,28.51l-.08-.64-.08.58.17.06h0ZM6.71,27.62l.31.1.12,1.06.12-.99.3.1v1.69l-.19-.06v-1.29l-.15,1.24-.17-.05-.15-1.33v1.29l-.19-.06v-1.69h0ZM7.7,27.95l.62.17v.36l-.39-.11v.27l.36.1v.34l-.36-.1v.33l.4.11v.38l-.64-.17v-1.69h0ZM8.82,28.26l.23.05v1.69l-.23-.05v-1.69h0ZM9.23,28.35l.22.05.28,1v-.93l.22.05v1.69l-.22-.05-.28-.99v.93l-.22-.05v-1.69h0ZM10.48,29.72v-.35l.36.06v.72c-.07.09-.13.16-.18.19-.05.03-.12.04-.19.03-.09-.01-.16-.06-.22-.14-.06-.08-.1-.19-.13-.33-.03-.14-.05-.3-.05-.47,0-.18.02-.34.05-.47.03-.13.08-.23.15-.29.05-.05.12-.06.21-.05.08.01.15.04.19.08.04.04.08.1.1.17.03.08.05.17.06.28l-.23.05c0-.07-.03-.12-.05-.15-.02-.04-.05-.06-.08-.06-.05,0-.09.03-.12.1-.03.07-.05.2-.05.37,0,.18.02.32.05.4.03.08.07.13.13.14.03,0,.05,0,.07-.01.02-.01.05-.04.08-.07v-.16l-.16-.02h0ZM11.72,29.91v-.35l.36.04v.72c-.07.1-.13.16-.18.19-.05.03-.12.04-.19.03-.09-.01-.16-.05-.22-.13-.06-.07-.1-.18-.13-.32-.03-.14-.05-.3-.05-.47,0-.18.02-.34.05-.48.03-.13.08-.23.15-.29.05-.05.12-.07.21-.06.08,0,.15.03.19.07.04.04.08.09.1.17.03.07.05.17.06.28l-.23.06c0-.06-.03-.12-.05-.15-.02-.04-.05-.06-.08-.06-.05,0-.09.03-.12.1-.03.08-.05.2-.05.37,0,.18.02.32.05.4.03.08.07.13.13.13.03,0,.05,0,.07-.02.02-.01.05-.04.08-.08v-.16l-.16-.02h0ZM12.69,30.35l-.27-.02-.04.28-.24-.02.29-1.67.26.02.29,1.71-.25-.02-.04-.28h0ZM12.64,29.98l-.08-.61-.08.6h.17ZM12.97,28.99h.22s.08.95.08.95l.12-.94h.22s.12.96.12.96l.08-.94h.22s-.17,1.69-.17,1.69h-.23s-.13-1.08-.13-1.08l-.13,1.06h-.23s-.17-1.7-.17-1.7h0ZM14.11,29.07l.63.02v.36l-.39-.02v.27h.36v.36h-.36s0,.32,0,.32l.4.02v.38l-.64-.02v-1.69h0ZM15.19,30.22l.22-.03c0,.08.01.14.03.18.02.07.06.1.1.1.03,0,.06-.02.08-.05.02-.04.03-.08.03-.12s0-.08-.03-.12c-.02-.03-.06-.07-.12-.1-.1-.05-.18-.12-.22-.2-.04-.09-.07-.19-.07-.33,0-.09.01-.17.03-.25.02-.08.06-.14.1-.18.05-.04.11-.07.19-.07.1,0,.17.04.22.12.05.08.08.21.09.38l-.22.03c0-.08-.02-.13-.04-.17-.02-.03-.04-.05-.08-.05-.03,0-.05.01-.06.04-.01.03-.02.06-.02.09,0,.03,0,.05.02.07.01.02.04.04.08.06.1.05.18.1.22.15.04.05.08.11.1.19.02.07.03.16.03.25,0,.11-.01.21-.04.3-.03.09-.06.16-.11.21-.05.05-.11.07-.18.07-.13,0-.22-.06-.27-.17-.05-.11-.08-.25-.08-.42h0ZM16.49,29.06h.23s0,1,0,1c0,.1,0,.19-.02.28-.01.09-.04.17-.07.24-.03.07-.06.12-.09.14-.05.04-.1.06-.16.06-.04,0-.08,0-.12-.01-.04,0-.08-.03-.11-.06-.03-.03-.06-.08-.08-.14-.02-.06-.04-.13-.05-.19-.01-.11-.02-.2-.02-.28v-1.01h.23s0,1.02,0,1.02c0,.09.01.16.03.21.02.05.05.08.1.07.04,0,.07-.03.1-.08.02-.05.03-.12.03-.22v-1.03h0ZM17.39,29.99l.21.13c-.01.13-.04.24-.07.32-.03.09-.07.15-.11.2-.04.05-.1.07-.17.07-.08,0-.15-.02-.2-.07-.05-.05-.1-.14-.14-.28-.04-.13-.06-.3-.06-.51,0-.28.03-.5.1-.65.07-.15.16-.23.28-.24.1,0,.17.04.23.12.05.08.1.21.12.39l-.21.11c0-.05-.01-.09-.02-.11-.01-.04-.03-.07-.05-.09-.02-.02-.04-.03-.06-.03-.05,0-.09.05-.12.15-.02.07-.03.18-.03.33,0,.19.01.32.04.38.03.07.06.1.11.1.04,0,.08-.03.1-.09.02-.06.04-.14.05-.25h0ZM17.72,28.96l.23-.02v1.69l-.23.02v-1.69h0ZM18.48,28.86l.23-.03v1.69l-.23.03v-1.69h0ZM18.88,28.79l.22-.03.29.9v-.93l.22-.03v1.69l-.22.03-.28-.89v.93l-.22.03v-1.69h0ZM20.14,29.67v-.35l.36-.07v.72c-.07.12-.13.2-.18.25-.05.05-.12.08-.19.09-.09.02-.16,0-.22-.06-.06-.06-.1-.15-.13-.28-.03-.13-.05-.28-.05-.46,0-.18.02-.35.05-.49.03-.14.08-.26.15-.34.05-.06.12-.11.21-.12.08-.02.15-.01.19.01.04.03.08.07.1.14.03.07.05.15.06.26l-.23.13c0-.06-.03-.11-.05-.14-.02-.03-.05-.04-.08-.03-.05,0-.09.06-.12.14-.03.09-.05.21-.05.39,0,.18.02.31.05.38.03.07.07.1.13.09.03,0,.05-.02.07-.04.02-.02.05-.06.08-.1v-.16l-.16.03h0ZM20.99,28.41l.39-.09c.08-.02.15.01.19.09.04.08.06.2.06.37s-.02.31-.07.42c-.05.11-.12.17-.21.19l-.13.03v.63l-.23.05v-1.69h0ZM21.23,29.07h.06s.08-.05.09-.09c.02-.04.03-.09.03-.14s0-.1-.02-.13c-.02-.03-.05-.04-.09-.03l-.07.02v.38h0ZM22.12,29.52l.04.27.24-.06-.28-1.62-.25.06-.28,1.75.24-.06.04-.29.27-.06h0ZM22.07,29.17l-.17.04.08-.63.08.59h0ZM22.48,28.03l.31-.1.12.99.12-1.06.3-.1v1.69l-.19.06v-1.29l-.15,1.33-.17.05-.15-1.24v1.29l-.19.06v-1.69h0ZM23.48,29.38v-1.69l.39-.12c.07-.02.13-.03.16,0,.04.02.07.06.09.13.02.07.03.16.03.26,0,.09,0,.18-.03.25-.02.07-.04.14-.07.19-.02.03-.05.06-.08.09.03.01.05.03.06.04,0,.01.02.04.04.08.02.04.03.07.03.09l.11.45-.26.08-.12-.48c-.02-.06-.03-.1-.04-.12-.02-.02-.04-.03-.06-.02h-.02v.69l-.23.07h0ZM23.71,28.3l.1-.03s.03-.02.06-.04c.02-.01.03-.03.04-.06,0-.03.01-.07.01-.1,0-.05,0-.09-.02-.12-.02-.02-.04-.03-.09-.02l-.1.03v.34h0ZM24.3,27.4l.23-.08v1.69l-.23.08v-1.69h0ZM24.69,27.26l.23-.09v.59l.25-.1v-.59l.23-.09v1.69l-.23.09v-.68l-.25.1v.68l-.23.09v-1.69Z"/></svg>